<?xml version="1.0" encoding="UTF-8"?>
<svg id="katman_1" xmlns="http://www.w3.org/2000/svg" version="1.1" viewBox="0 0 1080 1080">
  <!-- Generator: Adobe Illustrator 29.5.1, SVG Export Plug-In . SVG Version: 2.1.0 Build 141)  -->
  <defs>
    <style>
      .st0 {
        fill: none;
      }

      .st1 {
        fill: #cbb17e;
      }
    </style>
  </defs>
  <path class="st0" d="M391.49,471.72c4.33-5.02,8.84-11.43,13.51-19.23,4.68-7.8,7.02-13.25,7.02-16.37s-1.3-4.68-3.9-4.68-5.89,1.56-9.88,4.68c-11.09,8.49-20.44,18.15-28.07,28.98-7.63,10.83-15.16,24.3-22.61,40.41,16.11-7.45,30.75-18.71,43.92-33.78Z"/>
  <path class="st1" d="M227,551.5c-2.43-2.25-4.51-3.9-6.24-4.94-1.73-1.04-4.68-2.68-8.84-4.94-4.16-2.25-7.11-3.9-8.84-4.94-4.16-2.42-6.24-5.15-6.24-8.19s1.12-6.02,3.38-8.97c5.72-7.97,13.64-14.46,23.78-19.49,10.14-5.02,18.58-7.54,25.34-7.54h1.56c3.29.69,4.68,2.6,4.16,5.72-.52,3.12-1.69,5.59-3.51,7.41-1.82,1.82-2.56,3.25-2.21,4.29.69,1.04,1.56,1.21,2.6.52,3.98-2.6,6.63-5.37,7.93-8.32,1.3-2.94,1.95-5.54,1.95-7.8s-1.34-4.55-4.03-6.89c-2.69-2.34-7.32-3.51-13.9-3.51-10.39,0-21.92,3.81-34.56,11.43-12.65,7.62-19.58,16.2-20.79,25.73-2.25,6.59-6.93,14.73-14.03,24.43-.1.15-.18.3-.25.45-4.27,5.13-9.33,10.35-15.21,15.66-8.06,7.28-14.34,12.13-18.84,14.55-4.51,2.43-7.97,2.25-10.39-.52-1.39-1.56-2.08-3.55-2.08-5.98s.09-4.42.26-5.98c.52-5.37,5.72-17.93,15.59-37.68.86-1.56,1.73-3.2,2.6-4.94.17-.52.43-1.21.78-2.08.35-.86.91-2.03,1.69-3.51.78-1.47.99-2.99.65-4.55-.87-2.77-3.47-4.16-7.8-4.16h-1.82c-2.6.52-5.63,5.63-9.1,15.33-.69,1.39-.87,2.51-.52,3.38-4.85,7.28-11.52,16.2-20.01,26.77-.69.87-1.04,1.6-1.04,2.21s.09,1.08.26,1.43c.86,1.73,2.08,1.73,3.64,0,5.89-6.76,9.27-11.08,10.14-12.99-5.55,12.3-8.32,21.4-8.32,27.29s2.08,10.04,6.24,12.47c2.6,1.38,4.68,2.08,6.24,2.08,7.97,0,15.33-2.51,22.09-7.54,5.54-3.98,11.69-9.61,18.45-16.89,6.33-6.82,10.81-12.48,13.49-17.02,3.79-5.61,6.66-10.08,8.6-13.39,1.21,3.12,4.16,6.24,8.84,9.35.52.35,2.77,1.56,6.76,3.64,8.49,4.51,12.73,8.67,12.73,12.47,0,6.93-3.51,13.73-10.52,20.4-7.02,6.67-14.25,11.13-21.7,13.38-1.73.52-3.42.78-5.07.78s-3.12-.78-4.42-2.34c-1.3-1.56-.82-3.64,1.43-6.24,1.9-2.6,3.68-4.24,5.33-4.94,1.64-.69,2.55-1.3,2.73-1.82.17-.52.09-.95-.26-1.3-.35-.35-.78-.43-1.3-.26-5.72,2.43-9.88,4.94-12.47,7.54-2.77,3.29-4.16,5.67-4.16,7.15s.26,2.55.78,3.25c1.38,2.77,3.94,4.16,7.67,4.16s7.41-.43,11.04-1.3c16.11-3.64,28.24-9.96,36.38-18.97,5.72-6.24,8.14-11.95,7.28-17.15-.17-1.9-1.47-3.98-3.9-6.24Z"/>
  <path class="st1" d="M182.82,601.65c-6.07,0-7.89,2.34-5.46,7.02,2.42,4.33-.69,11.86-9.35,22.61-3.12,3.46-4.68,5.63-4.68,6.5s.26,1.3.78,1.3c1.73,0,6.67-4.94,14.81-14.81,6.24-7.97,9.36-12.91,9.36-14.81s-.52-3.68-1.56-5.33c-1.04-1.65-2.34-2.47-3.9-2.47Z"/>
  <path class="st1" d="M344.46,514.34c7.62-3.29,16.37-8.49,26.25-15.59,9.88-7.1,18.8-14.9,26.77-23.39,14.9-16.46,22.35-29.02,22.35-37.68,0-4.5-1.91-7.75-5.72-9.75-3.81-1.99-7.8-2.99-11.95-2.99-5.89,0-12.21,2.04-18.97,6.11-6.76,4.07-13.25,10.52-19.49,19.36-11.43,15.77-20.96,33.7-28.59,53.79-.35,0-1.04-.17-2.08-.52-2.25-1.21-3.81-.78-4.68,1.3-.35.69-.52,1.69-.52,2.99s1.3,2.64,3.9,4.03c-8.66,12.99-15.85,22.96-21.57,29.88-.53.68-.95,1.29-1.3,1.85-4.62,5.85-10.28,11.81-17.02,17.9-8.06,7.28-14.34,12.13-18.84,14.55-4.51,2.43-7.97,2.25-10.39-.52-1.39-1.56-2.08-3.55-2.08-5.98s.09-4.42.26-5.98c.52-5.37,5.72-17.93,15.59-37.68.86-1.56,1.73-3.2,2.6-4.94.17-.52.43-1.21.78-2.08.35-.86.91-2.03,1.69-3.51.78-1.47.99-2.99.65-4.55-.87-2.77-3.47-4.16-7.8-4.16h-1.82c-2.6.52-5.63,5.63-9.1,15.33-.69,1.39-.87,2.51-.52,3.38-4.85,7.28-11.52,16.2-20.01,26.77-.69.87-1.04,1.6-1.04,2.21s.09,1.08.26,1.43c.86,1.73,2.08,1.73,3.64,0,5.89-6.76,9.27-11.08,10.14-12.99-5.55,12.3-8.32,21.4-8.32,27.29s2.08,10.04,6.24,12.47c2.6,1.38,4.68,2.08,6.24,2.08,7.97,0,15.33-2.51,22.09-7.54,5.54-3.98,11.69-9.61,18.45-16.89,4.78-5.14,8.49-9.63,11.19-13.47.18-.16.35-.34.5-.56,5.37-7.62,10.05-13.6,14.03-17.93-2.43,6.07-5.29,13.6-8.58,22.61-3.29,9.01-6.02,16.46-8.19,22.35-2.17,5.89-3.38,9.14-3.64,9.75-.26.6-.39,1.17-.39,1.69s.87.78,2.6.78,5.72-1.56,11.95-4.68c1.56-1.04,6.24-7.54,14.03-19.49,3.81-6.06,7.28-11.26,10.4-15.59,2.08,11.95,5.72,23.65,10.91,35.08,5.2,11.43,11.69,21.18,19.49,29.24,7.8,8.06,15.76,12.08,23.91,12.08,4.16,0,8.49-1.39,12.99-4.16,4.5-2.77,6.84-6.59,7.02-11.43,0-2.08-.69-4.64-2.08-7.67-1.39-3.03-2.6-5.16-3.64-6.37-1.73-1.39-3.38-2.17-4.94-2.34-1.73,0-1.52,1.69.65,5.07,2.16,3.38,3.59,7.41,4.29,12.08,1.04,5.2-1.39,7.8-7.28,7.8-7.11,0-14.94-5.2-23.52-15.59-8.58-10.39-14.86-19.75-18.84-28.07-3.99-8.32-8.06-19.75-12.21-34.3,6.06-6.41,18.62-14.2,37.68-23.39,3.98-1.9,5.98-4.07,5.98-6.5,0-1.38-.87-2.68-2.6-3.9-1.73-1.21-3.73-1.82-5.98-1.82s-4.77.69-7.54,2.08c-5.89,2.77-15.51,11.95-28.85,27.55l-1.04-3.64c-.35-2.6-1.13-3.64-2.34-3.12-2.25,1.21-3.38,4.42-3.38,9.62,0,1.73.08,3.38.26,4.94l-16.89,22.09c5.2-16.28,11.17-31.87,17.93-46.78ZM370.18,465.09c7.62-10.83,16.98-20.49,28.07-28.98,3.98-3.12,7.28-4.68,9.88-4.68s3.9,1.56,3.9,4.68-2.34,8.58-7.02,16.37c-4.68,7.8-9.18,14.21-13.51,19.23-13.17,15.07-27.81,26.34-43.92,33.78,7.45-16.11,14.98-29.58,22.61-40.41Z"/>
  <path class="st1" d="M893.67,539.67c-.95-.43-1.78-.22-2.47.65-4.85,6.93-11.26,13.99-19.23,21.18-7.97,7.19-13.64,11.74-17.02,13.64-3.38,1.91-5.68,2.86-6.89,2.86-3.64,0-5.46-2.51-5.46-7.54,0-2.42.6-5.28,1.82-8.58,5.2-13.68,12.99-26.59,23.39-38.72,4.85-5.54,7.88-9.96,9.1-13.25.69-1.9.34-3.25-1.04-4.03-1.39-.78-3.55-1.17-6.5-1.17l-9.1.26c-5.55,0-12.21-.26-20.01-.78l10.13-16.11c3.46-6.24,4.16-9.36,2.08-9.36-1.04,0-1.99.17-2.86.52-.87.35-2.95,1.3-6.24,2.86-3.29,1.56-7.15,4.59-11.56,9.1-4.42,4.51-7.06,8.1-7.93,10.78-.87,2.69-.78,4.59.26,5.72,1.04,1.13,2.6,1.86,4.68,2.21-6.76,12.99-14.81,25.21-24.17,36.64-.3.41-.55.77-.76,1.12-3.88,4.58-8.42,9.23-13.65,13.95-8.06,7.28-14.34,12.13-18.84,14.55-4.51,2.43-8.06,2.25-10.65-.52-1.39-1.56-2.08-3.55-2.08-5.98s.09-4.42.26-5.98c1.56-12.64,6.76-25.21,15.59-37.68,1.04-1.73.09-3.2-2.86-4.42-2.95-1.21-5.46-1.82-7.54-1.82-1.21,0-9.79,8.58-25.73,25.73-4.51,4.85-12.91,12.47-25.21,22.87-7.45,5.89-12.99,8.83-16.63,8.83s-5.46-3.2-5.46-9.61c0-3.29,2.29-8.53,6.88-15.72,4.59-7.19,9.92-13.64,15.98-19.36,7.28-6.41,15.03-11.74,23.26-15.98,8.23-4.24,15.59-6.37,22.09-6.37s10.78,1.65,12.86,4.94c.69.35,1.12.43,1.3.26.17-.17.26-.69.26-1.56,0-2.6-1.65-5.07-4.94-7.41-3.29-2.34-7.24-3.51-11.82-3.51s-9.31.61-14.16,1.82c-4.85,1.21-11.43,4.25-19.75,9.09-8.32,4.85-16.33,10.7-24.04,17.54-6.06,5.38-10.79,10.89-14.22,16.53-3.91,4.51-8.43,9.09-13.59,13.74-8.05,7.28-14.34,12.13-18.84,14.55-4.51,2.43-7.97,2.25-10.39-.52-1.39-1.56-2.08-3.55-2.08-5.98s.08-4.42.26-5.98c.52-5.37,5.72-17.93,15.59-37.68.17-.87,1.56-3.38,4.16-7.54,1.21-2.08,2.25-3.9,3.12-5.46,15.76-1.73,25.68-3.16,29.76-4.29,4.07-1.12,6.11-2.21,6.11-3.25,0-.87-1.43-1.3-4.29-1.3s-10.96.61-24.3,1.82l-3.38.26,12.47-21.83c.52-1.04,1.47-1.99,2.86-2.86,1.38-.86,2.68-2.29,3.9-4.29,1.21-1.99,1.82-3.81,1.82-5.46s-.26-2.81-.78-3.51c-1.21-1.9-3.51-2.86-6.89-2.86s-5.42.52-6.11,1.56c-.35.35-.69.69-1.04,1.04-.35.35-.78.95-1.3,1.82-.52.87-1,1.69-1.43,2.47-.43.78-1.08,1.91-1.95,3.38-.87,1.47-1.65,2.9-2.34,4.29l-12.99,24.17c-.52,0-.87.17-1.04.52-7.97.35-12.56,1.91-13.77,4.68-.69,1.56-.61,2.9.26,4.03.87,1.13,2.21,1.69,4.03,1.69s3.59-.17,5.33-.52c-3.81,7.11-5.72,10.74-5.72,10.92-4.63,6.94-10.94,15.41-18.88,25.35-3.2,3.52-6.78,7.06-10.74,10.64-7.97,7.19-14.25,12.04-18.84,14.55-4.59,2.51-8.19,2.38-10.79-.39-1.39-1.56-2.08-3.55-2.08-5.98s.09-4.42.26-5.98c1.21-8.84,3.51-16.54,6.88-23.13,3.38-6.58,9.23-16.8,17.54-30.66,1.21-2.08-.04-3.77-3.77-5.07-3.73-1.3-6.97-1.95-9.74-1.95-.87,1.39-3.47,5.85-7.8,13.38-4.33,7.54-7.37,12.6-9.1,15.2-12.65,18.37-22.57,30.45-29.75,36.25-7.19,5.81-12.86,8.71-17.02,8.71-1.73,0-3.51-.52-5.33-1.56-1.82-1.04-2.73-3.33-2.73-6.89s.95-7.93,2.86-13.12c5.02-13.34,13.51-25.47,25.47-36.38,3.12-2.25,3.46-3.85,1.04-4.81-2.43-.95-4.81-1.43-7.15-1.43s-4.81.35-7.41,1.04c-1.91.69-6.37,6.46-13.38,17.28-2.18,3.37-4.02,6.7-5.52,10.01-5,6.85-11.47,13.86-19.42,21.04-8.06,7.28-14.34,12.13-18.84,14.55-4.51,2.43-7.97,2.25-10.39-.52-1.39-1.56-2.08-3.55-2.08-5.98s.09-4.42.26-5.98c.52-5.37,5.72-17.93,15.59-37.68.17-.87,1.56-3.38,4.16-7.54,1.21-2.08,2.25-3.9,3.12-5.46,15.76-1.73,25.68-3.16,29.75-4.29,4.07-1.12,6.11-2.21,6.11-3.25,0-.87-1.43-1.3-4.29-1.3s-10.96.61-24.3,1.82l-3.38.26,12.47-21.83c.52-1.04,1.47-1.99,2.86-2.86,1.38-.86,2.68-2.29,3.9-4.29,1.21-1.99,1.82-3.81,1.82-5.46s-.26-2.81-.78-3.51c-1.21-1.9-3.51-2.86-6.89-2.86s-5.42.52-6.11,1.56c-.35.35-.7.69-1.04,1.04-.35.35-.78.95-1.3,1.82-.52.87-1,1.69-1.43,2.47-.44.78-1.08,1.91-1.95,3.38-.87,1.47-1.65,2.9-2.34,4.29l-12.99,24.17c-.52,0-.87.17-1.04.52-7.97.35-12.56,1.91-13.77,4.68-.69,1.56-.61,2.9.26,4.03.87,1.13,2.21,1.69,4.03,1.69s3.59-.17,5.33-.52c-3.81,7.11-5.72,10.74-5.72,10.92-4.85,7.28-11.52,16.2-20.01,26.77-.69.87-1.04,1.6-1.04,2.21s.09,1.08.26,1.43c.86,1.73,2.08,1.73,3.64,0,5.89-6.76,9.27-11.08,10.14-12.99-5.55,12.3-8.32,21.48-8.32,27.55,0,1.73.17,3.21.52,4.42,2.25,6.58,6.84,9.88,13.77,9.88,2.94,0,6.58-.78,10.91-2.34,7.45-2.77,16.72-10.13,27.81-22.09,2.58-2.78,4.79-5.26,6.67-7.47-.63,3.12-.96,6.22-.96,9.29,0,8.32,3.46,14.03,10.4,17.15,3.81,1.56,7.19,2.34,10.13,2.34,6.24,0,12.43-3.12,18.58-9.36,6.15-6.24,11.34-12.86,15.59-19.88,4.24-7.02,6.63-10.7,7.15-11.04-3.47,8.84-5.2,17.76-5.2,26.77,0,2.6.43,5.29,1.3,8.06.87,2.77,2.55,4.89,5.07,6.37,2.51,1.47,4.55,2.21,6.11,2.21,8.14,0,15.68-2.51,22.61-7.54,5.37-3.98,11.43-9.61,18.19-16.89,3.07-3.31,5.69-6.33,7.9-9.1,3.44-4.12,5.48-6.89,6.13-8.31-5.55,12.3-8.32,21.48-8.32,27.55,0,1.73.17,3.21.52,4.42,2.25,6.58,6.84,9.88,13.77,9.88,2.94,0,6.58-.78,10.91-2.34,7.45-2.77,16.72-10.13,27.81-22.09.04-.04.07-.08.11-.12-.07.73-.11,1.46-.11,2.2,0,3.47,1.12,6.72,3.38,9.75,2.25,3.03,4.98,5.37,8.19,7.02,3.2,1.64,6.19,2.47,8.96,2.47,6.06,0,12.87-3.03,20.4-9.1,7.54-6.06,14.16-12.38,19.88-18.97,5.72-6.58,8.92-10.05,9.61-10.39-3.29,8.67-4.94,16.89-4.94,24.69,0,2.6.26,4.94.78,7.02,2.25,6.58,6.67,9.88,13.25,9.88,6.93,0,14.46-3.03,22.61-9.09,4.33-3.12,10.61-9.05,18.84-17.8,6.14-6.52,9.98-11.34,11.54-14.44,4.3-5.9,12.27-17.06,23.92-33.5,3.12,0,7.19.48,12.21,1.43,5.02.95,7.88,2.47,8.58,4.55l.78,2.34c.17.87-.96,2.95-3.38,6.24l-1.82,2.6c-.52.69-1.39,1.65-2.6,2.86-15.25,15.59-22.87,28.71-22.87,39.37s4.42,15.98,13.25,15.98c7.28,0,14.03-2.43,20.27-7.28,6.41-4.5,12.99-10.39,19.75-17.67,6.76-7.28,11.44-13.25,14.03-17.93.35-.52.52-1,.52-1.43s-.48-.87-1.43-1.3Z"/>
  <path class="st1" d="M969.81,432.35c-2.69-1.82-4.59-2.73-5.72-2.73s-2.17.48-3.12,1.43c-.95.95-6.54,13.43-16.76,37.42-10.22,24-17.46,42.1-21.7,54.31-4.25,12.21-6.37,18.67-6.37,19.36,0,2.08,1.43,2.9,4.29,2.47,2.86-.43,4.55-1.51,5.07-3.25,2.94-9.53,7.36-20.44,13.25-32.74,3.12-6.41,5.41-11.13,6.88-14.16,1.47-3.03,4.37-8.66,8.71-16.89,4.33-8.23,6.8-12.99,7.41-14.29.6-1.3,1.6-2.55,2.99-3.77,1.38-1.21,2.34-2.34,2.86-3.38,4.16-7.28,6.24-12.6,6.24-15.98s-1.35-5.98-4.03-7.8Z"/>
  <path class="st1" d="M916.28,565.79c-1.13,0-4.12,1.91-8.96,5.72-3.47,2.77-5.2,4.85-5.2,6.24,0,2.77,2.86,4.16,8.58,4.16,1.04,0,2.51-1.39,4.42-4.16,1.9-2.77,2.86-4.76,2.86-5.98v-4.42c0-1.04-.56-1.56-1.69-1.56Z"/>
</svg>