<?xml version="1.0" encoding="UTF-8"?>
<svg id="katman_1" xmlns="http://www.w3.org/2000/svg" version="1.1" viewBox="0 0 1920 1080">
  <!-- Generator: Adobe Illustrator 29.5.1, SVG Export Plug-In . SVG Version: 2.1.0 Build 141)  -->
  <defs>
    <style>
      .st0 {
        fill: #cfaf76;
      }
    </style>
  </defs>
  <path class="st0" d="M311.69,605.64c-11,0-18.39-3.06-22.2-9.2-3.81-6.12-5.6-13.21-5.39-21.25.22-8.03,1.69-15.75,4.44-23.15,2.75-7.39,5.17-12.37,7.29-14.91.84-1.27,2.54-1.9,5.07-1.9,2.11,0,3.7.95,4.76,2.85,1.05,1.9.52,5.39-1.59,10.47-1.27,2.12-2.44,5.07-3.49,8.88-1.06,3.8-1.9,7.83-2.54,12.05-.63,4.23-.74,8.15-.32,11.73.42,3.6,1.68,6.45,3.81,8.56,1.27.85,2.54,1.49,3.81,1.9,1.27.43,3.81.63,7.61.63,9.72-.42,21.03-3.59,33.93-9.51,12.89-5.92,30.97-15.43,54.23-28.54,3.38,1.27,5.39,2.65,6.03,4.12.63,1.49.84,2.85.63,4.12-.22,1.27-.85,2.44-1.9,3.49-1.06,1.06-1.8,1.8-2.22,2.22-22.83,13.95-41.54,23.69-56.13,29.18-14.59,5.5-26.54,8.24-35.83,8.24Z"/>
  <path class="st0" d="M377.64,658.29c-4.65,0-8.45-.84-11.42-2.54-5.07-2.54-8.88-6.23-11.42-11.1-2.54-4.86-3.81-10.15-3.81-15.86s1.27-11.73,3.81-18.08c2.54-6.34,6.34-12.05,11.42-17.12,3.39-3.81,7.19-7.08,11.42-9.83,4.23-2.74,8.15-5.07,11.73-6.98,3.6-1.9,6.56-3.49,8.88-4.76,2.33-1.27,3.49-2.11,3.49-2.54v-3.49c0-1.9-.22-4.33-.63-7.29-.84-9.72-.21-17.97,1.9-24.73,2.11-6.76,5.28-10.15,9.51-10.15,3.81,0,5.71,1.69,5.71,5.07,0,.85-.22,1.9-.63,3.17-.43,1.27-1.06,2.54-1.9,3.81-1.27,2.54-2.01,4.66-2.22,6.34-.22,1.7-.11,5.29.32,10.78,0,4.23.21,6.98.63,8.24v3.81c.42,0,2.32-.42,5.71-1.27,3.38-.84,7.5-1.9,12.37-3.17,4.86-1.27,9.93-2.54,15.22-3.81,5.28-1.27,9.83-2.11,13.64-2.54,3.81.85,6.34,2.96,7.61,6.34,1.27,3.39-1.27,5.93-7.61,7.61-4.23.85-8.67,1.8-13.32,2.86-4.66,1.06-9.1,2.12-13.32,3.17-4.23,1.06-7.83,2.01-10.78,2.86-2.96.85-4.66,1.49-5.07,1.9-.85.43-.85,2.85,0,7.29.84,4.44,1.27,9.83,1.27,16.17s-1.06,13.32-3.17,20.93c-2.12,7.61-6.34,15.01-12.68,22.2-4.22,4.66-8.66,7.93-13.32,9.83-4.65,1.9-9.09,2.85-13.32,2.85ZM373.2,677.95c-8.45-1.69-13.42-3.38-14.9-5.07-1.48-1.69-1.37-5.49.32-11.42,2.96-9.72,6.13-14.59,9.51-14.59.85,0,2.12.43,3.81,1.27,2.54,1.27,3.49,3.17,2.85,5.71-.63,2.54-2,6.13-4.12,10.78,5.93.85,11.42,2.01,16.49,3.49,5.07,1.49,9.31,4.55,12.68,9.2,2.11,2.54,3.27,5.5,3.49,8.88.21,3.39-.43,6.88-1.9,10.46-1.48,3.6-3.81,6.77-6.98,9.51-3.17,2.76-7.5,4.76-13,6.03-1.68.43-3.81.63-6.34.63-3.81,0-6.66-.73-8.56-2.22-1.9-1.48-3.06-3.17-3.49-5.07-.42-1.9,0-3.7,1.27-5.39,1.27-1.69,2.75-2.54,4.44-2.54.43,0,.85.11,1.27.32.43.22.85.32,1.27.32.85.43,2.33.63,4.44.63,2.96,0,5.93-.84,8.88-2.54,2.96-1.68,4.76-3.7,5.39-6.03.63-2.32-.21-4.65-2.54-6.98-2.32-2.32-7.08-4.12-14.27-5.39ZM377.01,644.97c2.54,0,5.93-1.05,10.15-3.17,5.93-2.95,10.26-7.61,13-13.95s4.54-12.69,5.39-19.03c.84-6.34.84-11.83,0-16.49-.85-4.65-1.9-6.76-3.17-6.34-1.27.43-3.06,1.27-5.39,2.54-2.32,1.27-4.76,2.75-7.29,4.44-2.54,1.69-4.96,3.39-7.29,5.07-2.32,1.69-4.12,3.17-5.39,4.44-4.22,4.23-7.29,8.78-9.2,13.64-1.9,4.87-2.85,9.41-2.85,13.63s1.06,7.83,3.17,10.78c2.12,2.96,5.07,4.44,8.88,4.44Z"/>
  <path class="st0" d="M484.82,605.64c-11,0-18.39-3.06-22.2-9.2-3.81-6.12-5.6-13.21-5.39-21.25.22-8.03,1.69-15.75,4.44-23.15,2.75-7.39,5.17-12.37,7.29-14.91.84-1.27,2.54-1.9,5.07-1.9,2.11,0,3.7.95,4.76,2.85,1.05,1.9.52,5.39-1.59,10.47-1.27,2.12-2.44,5.07-3.49,8.88-1.06,3.8-1.9,7.83-2.54,12.05-.63,4.23-.74,8.15-.32,11.73.42,3.6,1.68,6.45,3.81,8.56,1.27.85,2.54,1.49,3.81,1.9,1.27.43,3.81.63,7.61.63,9.72-.42,21.03-3.59,33.93-9.51,12.89-5.92,30.97-15.43,54.23-28.54,3.38,1.27,5.39,2.65,6.03,4.12.63,1.49.84,2.85.63,4.12-.22,1.27-.85,2.44-1.9,3.49-1.06,1.06-1.8,1.8-2.22,2.22-22.83,13.95-41.54,23.69-56.13,29.18-14.59,5.5-26.54,8.24-35.83,8.24Z"/>
  <path class="st0" d="M593.27,572.66c3.38-3.8,7.5-7.93,12.37-12.37,4.86-4.44,9.93-8.56,15.22-12.37,5.28-3.81,10.67-7.08,16.17-9.83,5.49-2.75,10.36-4.12,14.59-4.12,5.92,0,10.36,2.54,13.32,7.61,2.95,5.07,3.06,11.53.32,19.34-2.75,7.83-9.41,13.43-19.98,16.81-.85.43-1.59.74-2.22.95-.63.22-1.17.54-1.59.95-.85,0-1.49.22-1.9.63,0,2.12,2.64,4.34,7.93,6.66,5.28,2.33,9.2,3.49,11.73,3.49,5.07,0,10.15-1.16,15.22-3.49,5.07-2.32,10.15-5.28,15.22-8.88,5.07-3.59,9.93-7.5,14.59-11.73,4.65-4.22,8.88-8.24,12.69-12.05,5.49.85,8.66,2.44,9.51,4.76.84,2.33-.43,5.18-3.8,8.56-11,9.73-21.78,18.29-32.35,25.69-10.57,7.4-20.93,11.1-31.08,11.1-12.27,0-23.26-6.34-32.98-19.03-4.23-5.49-6.03-9.51-5.39-12.05s2.54-4.33,5.71-5.39c3.17-1.05,6.76-1.9,10.78-2.54,4.01-.63,7.08-1.59,9.2-2.85,2.11-1.27,3.81-2.95,5.07-5.07,1.27-2.11,1.68-4.22,1.27-6.34,0-1.69-1.06-2.54-3.17-2.54-2.96,0-7.61,2.01-13.95,6.03-6.34,4.02-13.11,9.2-20.3,15.54-7.19,6.34-14.17,13.22-20.93,20.61-6.77,7.4-12.27,14.27-16.49,20.61-2.12,2.96-3.9,5.5-5.39,7.61-1.48,2.12-2.43,3.17-2.85,3.17h-1.9c-2.11,0-4.01-.63-5.71-1.9-1.68-1.27-2.11-3.59-1.27-6.98.43-2.11,1.06-5.17,1.9-9.2.85-4.01,1.8-8.14,2.85-12.37,1.06-4.22,1.9-8.13,2.54-11.73.63-3.59.95-6.03.95-7.29v-2.54c0-.42.22-1.05.63-1.9.43-.84.95-2.22,1.59-4.12.63-1.9,1.38-4.76,2.22-8.56,1.68-8.03,4.01-17.97,6.98-29.81,2.95-11.83,6.34-24.42,10.15-37.74,3.81-13.32,8.25-26.74,13.32-40.27,5.07-13.53,10.67-25.69,16.81-36.47,6.12-10.78,12.89-19.76,20.3-26.96,7.39-7.18,15.54-10.99,24.42-11.42,6.34,0,11.2.95,14.59,2.85,3.38,1.9,6.55,5.82,9.51,11.73,5.07,10.15,4.54,23.78-1.59,40.91-6.13,17.12-14.9,34.57-26.32,52.32s-23.69,34.47-36.79,50.1c-13.11,15.65-24.1,27.27-32.98,34.88-6.77,5.5-10.15,10.78-10.15,15.86,0,.85.73.74,2.22-.32,1.48-1.05,4.54-3.9,9.2-8.56ZM668.11,386.2c-4.23.43-7.51,1.27-9.83,2.54-2.33,1.27-5.82,4.23-10.46,8.88-5.5,5.93-10.47,12.48-14.9,19.66-4.44,7.19-8.78,15.86-13,26-4.23,10.15-8.35,22.1-12.37,35.83-4.02,13.75-8.35,30.13-13,49.15-1.69,5.93-3.07,11-4.12,15.22-1.06,4.23-1.59,6.56-1.59,6.98s2.22-1.37,6.66-5.39c4.44-4.01,10.15-10.25,17.12-18.71,6.98-8.45,14.69-18.81,23.15-31.08,8.45-12.26,16.91-26.21,25.37-41.86,5.92-10.56,10.56-20.39,13.95-29.49,3.38-9.09,4.86-16.17,4.44-21.25,0-4.65-1.06-8.56-3.17-11.73-2.12-3.17-4.87-4.76-8.25-4.76Z"/>
  <path class="st0" d="M891.36,429.96c-3.81,10.15-8.67,22.94-14.59,38.37-5.93,15.44-10.68,31.08-14.27,46.93-3.6,15.86-5.29,30.87-5.07,45.03.21,14.17,4.33,25.27,12.37,33.3,5.92,5.07,11.62,7.61,17.12,7.61,6.34,0,12.58-2,18.71-6.03,6.12-4.01,11.94-8.66,17.44-13.95,5.49-5.28,10.25-10.46,14.27-15.54,4.01-5.07,7.08-8.88,9.2-11.42,3.38.85,5.71,1.9,6.98,3.17,1.27,1.27,2,2.54,2.22,3.8.21,1.27,0,2.54-.63,3.81-.63,1.27-1.17,2.12-1.59,2.54-11.84,16.49-23.47,28.44-34.88,35.83-11.42,7.4-21.99,11.1-31.71,11.1s-18.19-3.27-25.37-9.83c-7.19-6.55-12.48-15.54-15.86-26.96-3.38-12.26-3.7-26.64-.95-43.13,2.75-16.49,6.55-32.35,11.42-47.57,4.86-15.22,9.51-28.32,13.95-39.32,4.44-10.99,6.66-16.7,6.66-17.12-4.66,0-8.56.11-11.73.32-3.17.22-6.56.54-10.15.95-3.6.43-6.45.63-8.56.63-6.34.85-13,2.01-19.98,3.49-6.98,1.49-11.31,2.22-13,2.22-2.54,0-4.33-1.05-5.39-3.17-1.05-2.11-.73-4.22.95-6.34,2.12-2.11,6.66-3.9,13.64-5.39,6.98-1.48,14.49-2.75,22.52-3.81,8.03-1.05,15.75-1.9,23.15-2.54,7.39-.63,12.37-.95,14.91-.95.84-1.27,1.9-3.59,3.17-6.98,1.27-3.38,2.75-6.87,4.44-10.46,1.68-3.59,3.27-6.87,4.76-9.83,1.48-2.95,2.43-4.65,2.85-5.07.84-.84,2.11-1.27,3.81-1.27,3.8,0,5.71,1.9,5.71,5.71,0,.85-.43,2.44-1.27,4.76-.85,2.33-1.8,4.76-2.85,7.29-1.06,2.54-2.01,5.07-2.85,7.61-.85,2.54-1.49,4.23-1.9,5.07-.43,1.27,1.37,2.01,5.39,2.22,4.01.22,8.88.32,14.59.32s11.62.22,17.76.63c6.12.43,11.1,1.69,14.91,3.81,3.38,2.12,5.81,4.44,7.29,6.98,1.48,2.54,1.16,4.66-.95,6.34-.85.85-2.12,1.27-3.8,1.27-.85,0-2.01-.32-3.49-.95-1.49-.63-3.71-1.27-6.66-1.9-2.96-.63-6.98-1.16-12.05-1.59-5.07-.42-11.42-.63-19.03-.63h-10.15c-3.39,0-7.19.22-11.42.63Z"/>
  <path class="st0" d="M959.85,606.28c-8.88-1.68-14.48-6.34-16.81-13.95-2.32-7.61-2.75-15.54-1.27-23.78,1.49-8.25,4.12-15.75,7.93-22.52,3.81-6.76,7.39-10.15,10.78-10.15,1.27,0,2.54.63,3.81,1.9.84,1.27,1.27,2.65,1.27,4.12s-1.06,3.91-3.17,7.29c-3.39,5.5-5.82,11.73-7.29,18.71-1.49,6.98-1.8,12.37-.95,16.17,1.27,5.5,3.8,8.24,7.61,8.24,2.95,0,6.34-1.37,10.15-4.12,3.8-2.74,7.71-6.12,11.73-10.15s8.03-8.25,12.05-12.69c4.01-4.44,7.5-8.56,10.47-12.37,5.92-6.76,10.15-11.42,12.68-13.95,2.54-2.54,4.86-3.81,6.98-3.81,1.27,0,2.11.22,2.54.63,3.38,1.27,4.22,4.87,2.54,10.78-1.27,3.39-1.9,7.4-1.9,12.05s.63,8.25,1.9,10.78c1.27,4.23,3.7,7.09,7.29,8.56,3.59,1.49,7.71,2.22,12.37,2.22,10.99,0,20.5-2.63,28.54-7.93,8.03-5.28,15.86-11.31,23.47-18.08,5.49.85,8.66,2.76,9.51,5.71.84,2.96-.43,5.5-3.81,7.61-8.04,5.93-15.54,11.53-22.52,16.81-6.98,5.29-16.17,8.56-27.59,9.83-.85,0-1.8.11-2.85.32-1.06.22-2.01.32-2.85.32-9.3,0-17.03-2.43-23.15-7.29-6.13-4.86-10.26-10.46-12.37-16.81l-1.9-6.98c-2.96,3.39-6.56,7.51-10.78,12.37-4.23,4.87-8.67,9.51-13.32,13.96-4.66,4.44-9.41,8.24-14.27,11.42-4.87,3.17-9.62,4.76-14.27,4.76h-2.54Z"/>
  <path class="st0" d="M1150.11,429.96c-3.81,10.15-8.67,22.94-14.59,38.37-5.93,15.44-10.68,31.08-14.27,46.93-3.6,15.86-5.29,30.87-5.07,45.03.21,14.17,4.33,25.27,12.37,33.3,5.92,5.07,11.62,7.61,17.12,7.61,6.34,0,12.58-2,18.71-6.03,6.12-4.01,11.94-8.66,17.44-13.95,5.49-5.28,10.25-10.46,14.27-15.54,4.01-5.07,7.08-8.88,9.2-11.42,3.38.85,5.71,1.9,6.98,3.17,1.27,1.27,2,2.54,2.22,3.8.21,1.27,0,2.54-.63,3.81-.63,1.27-1.17,2.12-1.59,2.54-11.84,16.49-23.47,28.44-34.88,35.83-11.42,7.4-21.99,11.1-31.71,11.1s-18.19-3.27-25.37-9.83c-7.19-6.55-12.48-15.54-15.86-26.96-3.38-12.26-3.7-26.64-.95-43.13,2.75-16.49,6.55-32.35,11.42-47.57,4.86-15.22,9.51-28.32,13.95-39.32,4.44-10.99,6.66-16.7,6.66-17.12-4.66,0-8.56.11-11.73.32-3.17.22-6.56.54-10.15.95-3.6.43-6.45.63-8.56.63-6.34.85-13,2.01-19.98,3.49-6.98,1.49-11.31,2.22-13,2.22-2.54,0-4.33-1.05-5.39-3.17-1.05-2.11-.73-4.22.95-6.34,2.12-2.11,6.66-3.9,13.64-5.39,6.98-1.48,14.49-2.75,22.52-3.81,8.03-1.05,15.75-1.9,23.15-2.54,7.39-.63,12.37-.95,14.91-.95.84-1.27,1.9-3.59,3.17-6.98,1.27-3.38,2.75-6.87,4.44-10.46,1.68-3.59,3.27-6.87,4.76-9.83,1.48-2.95,2.43-4.65,2.85-5.07.84-.84,2.11-1.27,3.81-1.27,3.8,0,5.71,1.9,5.71,5.71,0,.85-.43,2.44-1.27,4.76-.85,2.33-1.8,4.76-2.85,7.29-1.06,2.54-2.01,5.07-2.85,7.61-.85,2.54-1.49,4.23-1.9,5.07-.43,1.27,1.37,2.01,5.39,2.22,4.01.22,8.88.32,14.59.32s11.62.22,17.76.63c6.12.43,11.1,1.69,14.91,3.81,3.38,2.12,5.81,4.44,7.29,6.98,1.48,2.54,1.16,4.66-.95,6.34-.85.85-2.12,1.27-3.8,1.27-.85,0-2.01-.32-3.49-.95-1.49-.63-3.71-1.27-6.66-1.9-2.96-.63-6.98-1.16-12.05-1.59-5.07-.42-11.42-.63-19.03-.63h-10.15c-3.39,0-7.19.22-11.42.63Z"/>
  <path class="st0" d="M1271.24,550.47c.84,2.12,1.59,3.71,2.22,4.76.63,1.06,1.37,2.22,2.22,3.49.84,1.27,2,2.96,3.49,5.07,1.48,2.12,3.27,5.29,5.39,9.51,3.38,6.77,6.34,11.1,8.88,13,2.54,1.9,6.12,2.85,10.78,2.85,9.3,0,18.71-3.9,28.22-11.73,9.51-7.82,18.92-15.54,28.22-23.15,4.22,1.27,6.44,3.07,6.66,5.39.21,2.33-.74,4.76-2.85,7.29-2.54,3.39-6.24,7.2-11.1,11.42-4.87,4.23-10.15,8.15-15.86,11.73-5.71,3.6-11.63,6.66-17.76,9.2-6.13,2.54-11.73,3.81-16.81,3.81-6.77,0-12.27-1.79-16.49-5.39-4.23-3.59-7.61-7.5-10.15-11.73-2.54-4.22-4.55-8.03-6.03-11.42-1.49-3.38-2.85-5.07-4.12-5.07s-3.81,1.06-7.61,3.17c-3.81,2.12-8.15,4.66-13,7.61-4.87,2.96-9.62,5.82-14.27,8.56-4.66,2.76-8.25,4.55-10.78,5.39-3.39,1.7-6.77,2.54-10.15,2.54-8.45,0-13.74-4.65-15.86-13.95-1.27-5.07-.42-10.67,2.54-16.81,2.96-6.12,7.19-11.83,12.68-17.12,5.49-5.28,11.52-9.61,18.08-13,6.55-3.38,13-5.07,19.34-5.07,5.49,0,10.36,1.49,14.59,4.44,4.22,2.96,7.39,8.04,9.51,15.22ZM1207.82,578.37c0,2.96,1.05,4.44,3.17,4.44,3.38,0,8.98-2.64,16.81-7.93,7.82-5.28,18.49-11.31,32.03-18.08l-1.27-3.17c-1.69-6.76-5.5-10.15-11.42-10.15-3.81,0-7.93,1.27-12.37,3.8s-8.67,5.61-12.68,9.2c-4.02,3.6-7.4,7.4-10.15,11.42-2.75,4.02-4.12,7.51-4.12,10.46Z"/>
  <path class="st0" d="M1350.52,622.14c-.42,0-.73-.1-.95-.32-.21-.21-.52-.32-.95-.32-.84-.42-1.48-.84-1.9-1.27s-1.05-.84-1.9-1.27c-.84-1.27-1.37-2.32-1.58-3.17-.21-.84,0-2.74.63-5.71.63-2.95,1.9-7.71,3.81-14.27,1.9-6.55,4.76-16.17,8.56-28.86,4.23-13.53,7.08-22.09,8.56-25.69,1.48-3.59,3.06-5.81,4.76-6.66.84-.42,1.9-.63,3.17-.63,2.11,0,3.81,1.06,5.07,3.17,1.27,2.12,1.05,4.23-.63,6.34-.85,1.69-1.9,5.07-3.17,10.15-1.27,5.07-2.33,8.67-3.17,10.78-.43.85.32.22,2.22-1.9,1.9-2.11,4.33-4.86,7.29-8.25,6.76-7.61,12.47-13,17.12-16.17,4.65-3.17,8.66-4.76,12.05-4.76,4.22,0,7.82,1.8,10.78,5.39,2.95,3.6,5.92,7.51,8.88,11.73,2.95,4.23,6.44,8.24,10.46,12.05,4.01,3.8,8.98,6.13,14.91,6.98,5.49,0,10.56-.21,15.22-.63,4.65-.42,9.51-1.69,14.59-3.8.84-.42,2.64-1.16,5.39-2.22,2.75-1.05,5.39-2.22,7.93-3.49,3.38-1.69,6.98-3.38,10.78-5.07,3.81.85,6.66,2.65,8.56,5.39,1.9,2.76.32,5.61-4.76,8.56-9.73,4.66-18.93,8.46-27.59,11.42-8.67,2.96-16.6,4.44-23.78,4.44-8.46,0-16.28-2.11-23.47-6.34-7.19-4.22-13.95-11.2-20.3-20.93-3.81-5.49-6.77-8.24-8.88-8.24-2.96,0-9.31,5.71-19.03,17.12-8.04,9.31-14.17,17.44-18.39,24.42-4.23,6.98-7.51,12.9-9.83,17.76-2.32,4.87-4.12,8.46-5.39,10.78-1.27,2.33-2.95,3.49-5.07,3.49Z"/>
  <path class="st0" d="M1516.68,728.05c-.85-2.95-.54-5.92.95-8.88,1.48-2.95,3.27-5.07,5.39-6.34,2.54-.84,4.44-1.27,5.71-1.27,2.11,0,4.12.43,6.03,1.27,1.9.85,3.27,2.33,4.12,4.44,2.11,3.81,2,8.15-.32,13-2.33,4.87-5.82,7.29-10.47,7.29-2.12,0-4.44-1.05-6.98-3.17-2.54-2.11-4.02-4.22-4.44-6.34ZM1537.61,695.71c-3.8,0-5.93-2.11-6.34-6.34,0-.84,1.16-5.49,3.49-13.95,2.32-8.45,5.39-19.44,9.2-32.98,3.81-13.53,8.14-28.86,13-45.98,4.86-17.12,9.83-34.67,14.9-52.64,5.07-17.97,10.04-35.52,14.91-52.64,4.86-17.12,9.2-32.45,13-45.98,3.81-13.53,6.98-24.52,9.51-32.98,2.54-8.45,4.01-12.89,4.44-13.32,1.27-1.68,2.95-2.54,5.07-2.54,1.68,0,3.17.63,4.44,1.9.84.43,1.48.74,1.9.95.42.22.21,2.44-.63,6.66-.85,4.23-2.65,11.42-5.39,21.56-2.75,10.15-7.08,25.48-13,45.98-5.93,20.51-13.54,47.36-22.83,80.55-9.31,33.2-21.15,74.52-35.52,123.99-.85,3.8-1.8,7.2-2.85,10.15-1.06,2.96-2.01,4.87-2.85,5.71-1.27,1.27-2.76,1.9-4.44,1.9Z"/>
</svg>